<mxfile host="Electron" modified="2023-09-05T08:28:22.703Z" agent="Mozilla/5.0 (Macintosh; Intel Mac OS X 10_15_7) AppleWebKit/537.36 (KHTML, like Gecko) draw.io/21.6.8 Chrome/114.0.5735.289 Electron/25.5.0 Safari/537.36" etag="DKZUwLbpMIA6-C5Ymt3C" version="21.6.8" type="device">
  <diagram name="Page-1" id="e7e014a7-5840-1c2e-5031-d8a46d1fe8dd">
    <mxGraphModel dx="1194" dy="753" grid="1" gridSize="10" guides="1" tooltips="1" connect="1" arrows="1" fold="1" page="1" pageScale="1" pageWidth="1169" pageHeight="826" background="none" math="0" shadow="0">
      <root>
        <mxCell id="0" />
        <mxCell id="1" parent="0" />
        <mxCell id="2" value="login" style="swimlane;whiteSpace=wrap" parent="1" vertex="1">
          <mxGeometry x="164.5" y="128" width="280" height="570" as="geometry" />
        </mxCell>
        <mxCell id="5" value="" style="ellipse;shape=startState;fillColor=#000000;strokeColor=#ff0000;" parent="2" vertex="1">
          <mxGeometry x="100" y="40" width="30" height="30" as="geometry" />
        </mxCell>
        <mxCell id="6" value="" style="edgeStyle=elbowEdgeStyle;elbow=horizontal;verticalAlign=bottom;endArrow=open;endSize=8;strokeColor=#FF0000;endFill=1;rounded=0" parent="2" source="5" target="7" edge="1">
          <mxGeometry x="100" y="40" as="geometry">
            <mxPoint x="115" y="110" as="targetPoint" />
          </mxGeometry>
        </mxCell>
        <mxCell id="7" value="login" style="" parent="2" vertex="1">
          <mxGeometry x="60" y="110" width="110" height="50" as="geometry" />
        </mxCell>
        <mxCell id="8" value="registrazione" style="" parent="2" vertex="1">
          <mxGeometry x="60" y="220" width="110" height="50" as="geometry" />
        </mxCell>
        <mxCell id="9" value="" style="endArrow=open;strokeColor=#FF0000;endFill=1;rounded=0" parent="2" source="7" target="8" edge="1">
          <mxGeometry relative="1" as="geometry" />
        </mxCell>
        <mxCell id="4ZpDxrl9TIl5j2_K6lM_-41" style="edgeStyle=orthogonalEdgeStyle;rounded=0;orthogonalLoop=1;jettySize=auto;html=1;exitX=0;exitY=0.5;exitDx=0;exitDy=0;entryX=0;entryY=0.5;entryDx=0;entryDy=0;" edge="1" parent="2" source="10" target="7">
          <mxGeometry relative="1" as="geometry" />
        </mxCell>
        <mxCell id="10" value="invio,&#xa;convalida eÂ &#xa;salvataggio dati" style="" parent="2" vertex="1">
          <mxGeometry x="60" y="325" width="110" height="50" as="geometry" />
        </mxCell>
        <mxCell id="11" value="" style="endArrow=open;strokeColor=#FF0000;endFill=1;rounded=0" parent="2" source="8" target="10" edge="1">
          <mxGeometry relative="1" as="geometry" />
        </mxCell>
        <mxCell id="3" value="main" style="swimlane;whiteSpace=wrap" parent="1" vertex="1">
          <mxGeometry x="444.5" y="128" width="280" height="570" as="geometry" />
        </mxCell>
        <mxCell id="13" value="" style="ellipse;shape=startState;fillColor=#000000;strokeColor=#ff0000;" parent="3" vertex="1">
          <mxGeometry x="60" y="40" width="30" height="30" as="geometry" />
        </mxCell>
        <mxCell id="14" value="" style="edgeStyle=elbowEdgeStyle;elbow=horizontal;verticalAlign=bottom;endArrow=open;endSize=8;strokeColor=#FF0000;endFill=1;rounded=0" parent="3" source="13" target="15" edge="1">
          <mxGeometry x="40" y="20" as="geometry">
            <mxPoint x="55" y="90" as="targetPoint" />
          </mxGeometry>
        </mxCell>
        <mxCell id="4ZpDxrl9TIl5j2_K6lM_-53" style="edgeStyle=orthogonalEdgeStyle;rounded=0;orthogonalLoop=1;jettySize=auto;html=1;entryX=0.564;entryY=0.02;entryDx=0;entryDy=0;entryPerimeter=0;" edge="1" parent="3" source="15" target="4ZpDxrl9TIl5j2_K6lM_-52">
          <mxGeometry relative="1" as="geometry" />
        </mxCell>
        <mxCell id="15" value="home" style="" parent="3" vertex="1">
          <mxGeometry x="20" y="110" width="110" height="50" as="geometry" />
        </mxCell>
        <mxCell id="16" value="lista most rated" style="" parent="3" vertex="1">
          <mxGeometry x="20" y="220" width="110" height="50" as="geometry" />
        </mxCell>
        <mxCell id="17" value="" style="endArrow=open;strokeColor=#FF0000;endFill=1;rounded=0" parent="3" source="15" target="16" edge="1">
          <mxGeometry relative="1" as="geometry" />
        </mxCell>
        <mxCell id="4ZpDxrl9TIl5j2_K6lM_-58" style="edgeStyle=orthogonalEdgeStyle;rounded=0;orthogonalLoop=1;jettySize=auto;html=1;" edge="1" parent="3" source="18" target="4ZpDxrl9TIl5j2_K6lM_-57">
          <mxGeometry relative="1" as="geometry" />
        </mxCell>
        <mxCell id="18" value="dettaglio pacchetti&#xa;vacanza" style="" parent="3" vertex="1">
          <mxGeometry x="20" y="325" width="110" height="50" as="geometry" />
        </mxCell>
        <mxCell id="19" value="" style="endArrow=open;strokeColor=#FF0000;endFill=1;rounded=0" parent="3" source="16" target="18" edge="1">
          <mxGeometry relative="1" as="geometry" />
        </mxCell>
        <mxCell id="4ZpDxrl9TIl5j2_K6lM_-52" value="saldo prenotazioni" style="" vertex="1" parent="3">
          <mxGeometry x="155.5" y="170" width="110" height="50" as="geometry" />
        </mxCell>
        <mxCell id="4ZpDxrl9TIl5j2_K6lM_-57" value="acquisto pacchetto" style="" vertex="1" parent="3">
          <mxGeometry x="90" y="432" width="110" height="50" as="geometry" />
        </mxCell>
        <mxCell id="4" value="catalogo" style="swimlane;whiteSpace=wrap" parent="1" vertex="1">
          <mxGeometry x="724.5" y="128" width="435.5" height="562" as="geometry" />
        </mxCell>
        <mxCell id="33" value="invio, &#xa;processazione &#xa;dati" style="" parent="4" vertex="1">
          <mxGeometry x="90" y="405" width="110" height="50" as="geometry" />
        </mxCell>
        <mxCell id="38" value="" style="ellipse;shape=endState;fillColor=#000000;strokeColor=#ff0000" parent="4" vertex="1">
          <mxGeometry x="130" y="500" width="30" height="30" as="geometry" />
        </mxCell>
        <mxCell id="39" value="" style="endArrow=open;strokeColor=#FF0000;endFill=1;rounded=0" parent="4" source="33" target="38" edge="1">
          <mxGeometry relative="1" as="geometry" />
        </mxCell>
        <mxCell id="4ZpDxrl9TIl5j2_K6lM_-46" style="edgeStyle=orthogonalEdgeStyle;rounded=0;orthogonalLoop=1;jettySize=auto;html=1;entryX=0.177;entryY=-0.04;entryDx=0;entryDy=0;entryPerimeter=0;" edge="1" parent="4" source="30" target="4ZpDxrl9TIl5j2_K6lM_-42">
          <mxGeometry relative="1" as="geometry">
            <mxPoint x="35.5" y="282" as="targetPoint" />
          </mxGeometry>
        </mxCell>
        <mxCell id="4ZpDxrl9TIl5j2_K6lM_-51" style="edgeStyle=orthogonalEdgeStyle;rounded=0;orthogonalLoop=1;jettySize=auto;html=1;entryX=0.691;entryY=-0.06;entryDx=0;entryDy=0;entryPerimeter=0;" edge="1" parent="4" source="30" target="4ZpDxrl9TIl5j2_K6lM_-50">
          <mxGeometry relative="1" as="geometry" />
        </mxCell>
        <mxCell id="4ZpDxrl9TIl5j2_K6lM_-56" style="edgeStyle=orthogonalEdgeStyle;rounded=0;orthogonalLoop=1;jettySize=auto;html=1;entryX=0.5;entryY=0;entryDx=0;entryDy=0;" edge="1" parent="4" source="30" target="33">
          <mxGeometry relative="1" as="geometry" />
        </mxCell>
        <mxCell id="30" value="catalogo mete&#xa;turistiche" style="" parent="4" vertex="1">
          <mxGeometry x="90" y="112" width="110" height="50" as="geometry" />
        </mxCell>
        <mxCell id="4ZpDxrl9TIl5j2_K6lM_-48" style="edgeStyle=orthogonalEdgeStyle;rounded=0;orthogonalLoop=1;jettySize=auto;html=1;exitX=0.5;exitY=1;exitDx=0;exitDy=0;entryX=0.5;entryY=0;entryDx=0;entryDy=0;" edge="1" parent="4" source="4ZpDxrl9TIl5j2_K6lM_-42" target="4ZpDxrl9TIl5j2_K6lM_-47">
          <mxGeometry relative="1" as="geometry" />
        </mxCell>
        <mxCell id="4ZpDxrl9TIl5j2_K6lM_-42" value="scelta opzione&#xa;trasporto" style="" vertex="1" parent="4">
          <mxGeometry x="20" y="222" width="110" height="50" as="geometry" />
        </mxCell>
        <mxCell id="4ZpDxrl9TIl5j2_K6lM_-49" style="edgeStyle=orthogonalEdgeStyle;rounded=0;orthogonalLoop=1;jettySize=auto;html=1;entryX=0;entryY=0.5;entryDx=0;entryDy=0;" edge="1" parent="4" source="4ZpDxrl9TIl5j2_K6lM_-47" target="30">
          <mxGeometry relative="1" as="geometry">
            <Array as="points">
              <mxPoint x="6" y="317" />
              <mxPoint x="6" y="137" />
            </Array>
          </mxGeometry>
        </mxCell>
        <mxCell id="4ZpDxrl9TIl5j2_K6lM_-47" value="prenotazione" style="" vertex="1" parent="4">
          <mxGeometry x="20" y="292" width="110" height="50" as="geometry" />
        </mxCell>
        <mxCell id="4ZpDxrl9TIl5j2_K6lM_-50" value="prenotazione&#xa;camere hotel&#xa;nelle vicinanze" style="" vertex="1" parent="4">
          <mxGeometry x="205.5" y="222" width="110" height="50" as="geometry" />
        </mxCell>
        <mxCell id="4ZpDxrl9TIl5j2_K6lM_-54" value="" style="ellipse;shape=startState;fillColor=#000000;strokeColor=#ff0000;" vertex="1" parent="4">
          <mxGeometry x="130" y="32" width="30" height="30" as="geometry" />
        </mxCell>
        <mxCell id="4ZpDxrl9TIl5j2_K6lM_-55" value="" style="edgeStyle=elbowEdgeStyle;elbow=horizontal;verticalAlign=bottom;endArrow=open;endSize=8;strokeColor=#FF0000;endFill=1;rounded=0;" edge="1" parent="4">
          <mxGeometry x="-240" y="20" as="geometry">
            <mxPoint x="146.5" y="102" as="targetPoint" />
            <mxPoint x="146.5" y="62" as="sourcePoint" />
            <Array as="points">
              <mxPoint x="146" y="82" />
            </Array>
          </mxGeometry>
        </mxCell>
        <mxCell id="20" value="" style="endArrow=open;strokeColor=#FF0000;endFill=1;rounded=0;entryX=0;entryY=0.5;entryDx=0;entryDy=0;exitX=1;exitY=0.5;exitDx=0;exitDy=0;" parent="1" source="7" target="15" edge="1">
          <mxGeometry relative="1" as="geometry">
            <Array as="points" />
          </mxGeometry>
        </mxCell>
        <mxCell id="4ZpDxrl9TIl5j2_K6lM_-59" style="edgeStyle=orthogonalEdgeStyle;rounded=0;orthogonalLoop=1;jettySize=auto;html=1;entryX=0;entryY=0.75;entryDx=0;entryDy=0;" edge="1" parent="1" source="4ZpDxrl9TIl5j2_K6lM_-57" target="33">
          <mxGeometry relative="1" as="geometry" />
        </mxCell>
        <mxCell id="4ZpDxrl9TIl5j2_K6lM_-60" value="" style="endArrow=open;strokeColor=#FF0000;endFill=1;rounded=0;entryX=-0.014;entryY=0.14;entryDx=0;entryDy=0;entryPerimeter=0;" edge="1" parent="1" target="30">
          <mxGeometry relative="1" as="geometry">
            <mxPoint x="580" y="247" as="sourcePoint" />
            <mxPoint x="475" y="273" as="targetPoint" />
            <Array as="points" />
          </mxGeometry>
        </mxCell>
      </root>
    </mxGraphModel>
  </diagram>
</mxfile>
